# AST/ASF file generated using VICON BodyLanguage
# -----------------------------------------------
:version 1.10
:name VICON
:units
  mass 1.0
  length 0.45
  angle deg
:documentation
   .ast/.asf automatically generated from VICON data using
   VICON BodyBuilder and BodyLanguage model FoxedUp or BRILLIANT.MOD
:root
   order TX TY TZ RX RY RZ
   axis XYZ
   position 0 0 0  
   orientation 0 0 0 
:bonedata
  begin
     id 1 
     name lhipjoint
     direction 0.630082 -0.636569 0.44472 
     length 2.82754 
     axis 0 0 0  XYZ
  end
  begin
     id 2 
     name lfemur
     direction 0.34202 -0.939693 0  
     length 7.26371  
     axis 0 0 20  XYZ
    dof rx ry rz
    limits (-160.0 20.0)
           (-70.0 70.0)
           (-60.0 70.0)
  end
  begin
     id 3 
     name ltibia
     direction 0.34202 -0.939693 0   
     length 7.88616   
     axis 0 0 20   XYZ
    dof rx
    limits (-10.0 170.0)
  end
  begin
     id 4 
     name lfoot
     direction 0.0603448 -0.165796 0.984312   
     length 1.77861   
     axis -90 7.62852e-016 20   XYZ
    dof rx rz
    limits (-45.0 90.0)
           (-70.0 20.0)
  end
  begin
     id 5 
     name ltoes
     direction 1.53577e-011 -4.21876e-011 1   
     length 0.902235   
     axis -90 7.62852e-016 20   XYZ
    dof rx
    limits (-90.0 20.0)
  end
  begin
     id 6 
     name rhipjoint
     direction -0.656778 -0.61817 0.431866   
     length 2.9117  
     axis 0 0 0  XYZ 
  end
  begin
     id 7 
     name rfemur
     direction -0.34202 -0.939693 0   
     length 6.81603   
     axis 0 0 -20   XYZ
    dof rx ry rz
    limits (-160.0 20.0)
           (-70.0 70.0)
           (-70.0 60.0)
  end
  begin
     id 8 
     name rtibia
     direction -0.34202 -0.939693 0   
     length 8.05997   
     axis 0 0 -20   XYZ
    dof rx
    limits (-10.0 170.0)
 end
 begin
     id 9 
     name rfoot
     direction -0.0862404 -0.236944 0.967688   
     length 1.84899  
     axis -90 -7.62852e-016 -20   XYZ
    dof rx rz
    limits (-45.0 90.0)
           (-20.0 70.0)
  end
  begin
     id 10 
     name rtoes
     direction -1.53561e-011 -4.21798e-011 1   
     length 0.931579   
     axis -90 -7.62852e-016 -20   XYZ
    dof rx
    limits (-90.0 20.0)
  end
  begin
     id 11 
     name lowerback
     direction -0.0110203 0.991769 -0.127564   
     length 2.05686   
     axis 0 0 0   XYZ
    dof rx ry rz
    limits (-20.0 45.0)
           (-30.0 30.0)
           (-30.0 30.0)
  end
  begin
     id 12 
     name upperback
     direction 0.0109719 0.99993 -0.00432479   
     length 2.06234   
     axis 0 0 0   XYZ
    dof rx ry rz
    limits (-20.0 45.0)
           (-30.0 30.0)
           (-30.0 30.0)
  end
  begin
     id 13 
     name thorax
     direction 0.0173308 0.998351 0.0547306   
     length 2.09856   
     axis 0 0 0   XYZ
    dof rx ry rz
    limits (-20.0 45.0)
           (-30.0 30.0)
           (-30.0 30.0)
  end
  begin
     id 14 
     name lowerneck
     direction -0.0311736 0.989033 0.144366   
     length 1.98151   
     axis 0 0 0   XYZ
    dof rx ry rz
    limits (-20.0 45.0)
           (-30.0 30.0)
           (-30.0 30.0)
  end
  begin
     id 15 
     name upperneck
     direction 0.0421057 0.975772 -0.214698   
     length 2.01457   
     axis 0 0 0   XYZ
    dof rx ry rz
    limits (-20.0 45.0)
           (-30.0 30.0)
           (-30.0 30.0)
  end
  begin
     id 16
     name head
     direction 0.0136911 0.995958 -0.0887718  
     length 2.03562  
     axis 0 0 0   XYZ
    dof rx ry rz
    limits (-20.0 45.0)
           (-30.0 30.0)
           (-30.0 30.0)
  end
  begin
     id 17 
     name lclavicle
     direction 0.915335 0.396201 0.0720134  
     length 4.16217  
     axis 0 0 0   XYZ
    dof ry rz
    limits (-20.0 10.0)
           (0.0 20.0)
  end
  begin
     id 18 
     name lhumerus
     direction 1 -4.48965e-011 6.383e-018   
     length 4.93042   
     axis -180 -30 -90   XYZ
    dof rx ry rz
    limits (-60.0 90.0)
           (-90.0 90.0)
           (-90.0 90.0)
  end
  begin
     id 19
     name lradius
     direction 1 -4.48972e-011 8.8689e-027   
     length 3.68177   
     axis -180 -30 -90   XYZ
    dof rx
    limits (-10.0 170.0)
  end
  begin
     id 20
     name lwrist
     direction 1 -4.48953e-011 1.17971e-026   
     length 1.84089   
     axis -7.69454e-015 90 90   XYZ
    dof ry
    limits (-180.0 0.0)
 end
  begin
     id 21 
     name lhand
     direction 1 -4.49027e-011 2.35802e-026   
     length 0.721479   
     axis -1.50533e-014 90 90   XYZ
    dof rx rz
    limits (-90.0 90.0)
           (-45.0 45.0)
  end
  begin
     id 22 
     name lfingers
     direction 1 -4.48915e-011 4.72027e-026   
     length 0.581675   
     axis -3.01059e-014 90 90   XYZ
    dof rx
    limits (0.0 90.0)
  end
  begin
     id 23
     name lthumb
     direction 0.707107 -6.34948e-011 0.707107   
     length 0.835172   
     axis -90 45 -5.12164e-014   XYZ
    dof rx rz
    limits (-45.0 45.0)
           (-45.0 45.0)
  end
  begin
     id 24 
     name rclavicle
     direction -0.882781 0.469197 0.0234974   
     length 3.95647  
     axis 0 0 0   XYZ 
    dof ry rz
    limits (-10.0 20.0)
           (-20.0 0.0)
  end
  begin
     id 25 
     name rhumerus
     direction -1 -4.48965e-011 -1.54906e-018  
     length 5.07905   
     axis -180 30 90   XYZ
    dof rx ry rz
    limits (-90.0 60.0)
           (-90.0 90.0)
           (-90.0 90.0)
  end
  begin
     id 26 
     name rradius
     direction -1 -4.48972e-011 5.47489e-027   
     length 3.54394   
     axis -180 30 90   XYZ
    dof rx
    limits (-10.0 170.0)
  end
  begin
     id 27 
     name rwrist
     direction -1 -4.48955e-011 1.17969e-026   
     length 1.77197   
     axis -7.69454e-015 -90 -90   XYZ
    dof ry
    limits (-180.0 0.0)
  end
  begin
     id 28
     name rhand
     direction -1 -4.48982e-011 2.35888e-026   
     length 0.681156   
     axis -1.50533e-014 -90 -90   XYZ
    dof rx rz
    limits (-90.0 90.0)
           (-45.0 45.0)
  end
  begin
     id 29
     name rfingers
     direction -1 -4.48955e-011 4.71877e-026   
     length 0.549165   
     axis -3.01059e-014 -90 -90   XYZ
    dof rx
    limits (0.0 90.0)
  end
  begin
     id 30
     name rthumb
     direction -0.707107 -6.3491e-011 0.707107   
     length 0.788495   
     axis -90 -45 5.12164e-014   XYZ
    dof rx rz
    limits (-45.0 45.0)
           (-45.0 45.0)
  end
:hierarchy
  begin
    root lhipjoint rhipjoint lowerback
    lhipjoint lfemur
    lfemur ltibia
    ltibia lfoot
    lfoot ltoes
    rhipjoint rfemur
    rfemur rtibia
    rtibia rfoot
    rfoot rtoes
    lowerback upperback
    upperback thorax
    thorax lowerneck lclavicle rclavicle
    lowerneck upperneck
    upperneck head
    lclavicle lhumerus
    lhumerus lradius
    lradius lwrist
    lwrist lhand lthumb
    lhand lfingers
    rclavicle rhumerus
    rhumerus rradius
    rradius rwrist
    rwrist rhand rthumb
    rhand rfingers
  end

#!OML:ASF H:\Bending\Project 1\Capture day 1\Session 1\Subject.ASF
:FULLY-SPECIFIED
:DEGREES
64
root -11.9278 18.0976 -16.5624 -32.7565 85.9671 -49.689
lowerback 31.3895 -0.272035 1.12631
upperback 6.53587 0.826463 1.75158
thorax -9.8254 0.617393 0.980166
lowerneck -23.6716 -2.64426 -4.27122
upperneck 22.1965 -3.09782 3.86712
head 11.257 -1.23077 1.6264
rclavicle 1.00386e-014 1.50082e-014
rhumerus -5.55305 12.2338 -84.375
rradius 29.6568
rwrist 18.4007
rhand -23.7594 -16.0274
rfingers 7.12502
rthumb 2.70968 -45.99
lclavicle 1.00386e-014 1.50082e-014
lhumerus -3.36497 -10.8024 89.3677
lradius 27.5045
lwrist 19.1403
lhand -31.2509 10.0031
lfingers 7.12502
lthumb -4.52541 39.9347
rfemur -21.1906 -6.86114 17.7539
rtibia 7.64209
rfoot -3.39933 -12.4433
rtoes -3.92158
lfemur -32.7748 -2.92415 -5.7672
ltibia 28.4336
lfoot -13.9702 5.78786
ltoes -19.0505
65
root -11.9985 18.0799 -16.5819 -33.3557 85.7891 -51.4722
lowerback 32.4072 -0.300456 1.15512
upperback 6.6227 0.866535 1.74652
thorax -9.39616 0.645707 0.865952
lowerneck -23.6126 -2.50185 -4.12651
upperneck 20.7787 -2.9075 3.73748
head 10.7048 -1.16294 1.57263
rclavicle 1.56046e-014 3.89618e-014
rhumerus -3.06777 13.0117 -83.9817
rradius 29.9463
rwrist 17.717
rhand -23.848 -16.2736
rfingers 7.12502
rthumb 2.6242 -46.2372
lclavicle 1.56046e-014 3.89618e-014
lhumerus -0.929804 -11.9949 88.4368
lradius 27.8392
lwrist 19.8841
lhand -31.2891 10.2683
lfingers 7.12502
lthumb -4.56232 40.1991
rfemur -24.0981 -6.84309 18.049
rtibia 9.90782
rfoot -3.92442 -12.5801
rtoes -4.79574
lfemur -34.9402 -2.12546 -5.59433
ltibia 29.5125
lfoot -13.9031 5.3103
ltoes -18.5032
66
root -12.0612 18.0567 -16.6044 -34.1795 85.6547 -53.4143
lowerback 33.3199 -0.352928 1.20666
upperback 7.03675 0.87906 1.68895
thorax -9.29411 0.67082 0.768049
lowerneck -23.483 -2.34011 -3.9264
upperneck 19.4074 -2.70745 3.59678
head 10.1675 -1.08506 1.51006
rclavicle 1.59028e-014 2.4376e-014
rhumerus -0.536472 13.4393 -83.6112
rradius 30.0007
rwrist 17.3925
rhand -23.8438 -16.4056
rfingers 7.12502
rthumb 2.62825 -46.3692
lclavicle 1.59028e-014 2.4376e-014
lhumerus 1.48472 -13.101 87.4218
lradius 28.1147
lwrist 20.4766
lhand -31.3038 10.5001
lfingers 7.12502
lthumb -4.57645 40.4307
rfemur -26.7311 -6.90701 18.257
rtibia 11.8563
rfoot -4.31613 -12.703
rtoes -5.59588
lfemur -37.0433 -1.40999 -5.47583
ltibia 30.606
lfoot -13.8643 4.82523
ltoes -17.8596
67
root -12.1156 18.0295 -16.63 -34.5352 85.5669 -54.8084
lowerback 34.2306 -0.420275 1.24974
upperback 7.45142 0.869273 1.59564
thorax -9.18011 0.687051 0.645544
lowerneck -23.3958 -2.1778 -3.69582
upperneck 18.0937 -2.52616 3.50599
head 9.67019 -1.0047 1.45919
rclavicle -2.13507e-014 -1.22315e-014
rhumerus 2.46855 13.5079 -83.2965
rradius 29.4645
rwrist 17.4267
rhand -23.8039 -16.553
rfingers 7.12502
rthumb 2.66676 -46.516
lclavicle -2.13507e-014 -1.22315e-014
lhumerus 4.01181 -14.0825 86.331
lradius 28.2808
lwrist 20.9023
lhand -31.3279 10.6522
lfingers 7.12502
lthumb -4.59974 40.5822
rfemur -29.2131 -8.02823 18.9063
rtibia 13.6023
rfoot -4.71323 -11.683
rtoes -6.33994
lfemur -39.024 -0.806054 -5.44128
ltibia 31.6638
lfoot -13.8574 4.38669
ltoes -17.1385
68
root -12.1624 18.0015 -16.6574 -33.7644 85.5286 -54.9878
lowerback 35.2266 -0.507701 1.29868
upperback 7.77928 0.828272 1.38821
thorax -9.05952 0.690251 0.421602
lowerneck -23.3255 -2.03287 -3.44339
upperneck 16.8522 -2.40701 3.56772
head 9.21418 -0.931998 1.45024
rclavicle -2.34566e-014 -3.16813e-014
rhumerus 5.96911 13.1905 -83.1986
rradius 28.2735
rwrist 17.8366
rhand -23.7674 -16.8231
rfingers 7.12502
rthumb 2.70203 -46.7857
lclavicle -2.34566e-014 -3.16813e-014
lhumerus 6.64857 -14.975 85.1245
lradius 28.318
lwrist 21.2096
lhand -31.3922 10.6938
lfingers 7.12502
lthumb -4.66182 40.6225
rfemur -31.5121 -9.05932 19.4426
rtibia 15.2021
rfoot -5.06042 -10.7068
rtoes -6.98958
lfemur -40.8222 -0.333154 -5.51026
ltibia 32.6261
lfoot -13.88 4.05224
ltoes -16.3707
